<svg xmlns="http://www.w3.org/2000/svg" viewBox="0 0 35.59 39.79"><defs><style>.cls-1{fill:#594499;}</style></defs><g id="Capa_2" data-name="Capa 2"><g id="Content"><path class="cls-1" d="M27.32,39.79h8.27a17.43,17.43,0,0,1-1.43-2.58,5.56,5.56,0,0,1-.53-2.15q-.39-4.12-1-11.45-.68-8.46-.91-12.15c-.24-3.68-.37-5.94-.37-6.79a15.46,15.46,0,0,1,.18-2.53A5.24,5.24,0,0,1,32.47,0H23.55A5.22,5.22,0,0,1,22,2.44l-4.4,3.82L13.53,2.39a5.17,5.17,0,0,1-.83-1.08A4.57,4.57,0,0,1,12.2,0H3.34a6.21,6.21,0,0,1,.93,2.44A14.21,14.21,0,0,1,4.4,4.67q0,.93-.43,6.72T3,23.71q-.56,6.52-1,11.35a5.61,5.61,0,0,1-.51,2.18A15.89,15.89,0,0,1,0,39.79H8.27a8.89,8.89,0,0,1-.91-2.34,10.66,10.66,0,0,1-.25-2.33L9.38,5.68l8.23,7,.14-.12h0l.37-.33L26.2,5.52l2.29,29.6a10.68,10.68,0,0,1-.27,2.32,8.9,8.9,0,0,1-.9,2.35M12.1,1.56Z"/></g></g></svg>